<!DOCTYPE svg PUBLIC "-//W3C//DTD SVG 1.1//EN" "http://www.w3.org/Graphics/SVG/1.1/DTD/svg11.dtd">
<svg xmlns="http://www.w3.org/2000/svg" xmlns:xlink="http://www.w3.org/1999/xlink" version="1.1" width="307px" height="301px" viewBox="-0.5 -0.5 307 301"><defs/><g><rect x="25" y="0" width="100" height="40" fill="#ffffff" stroke="#000000" pointer-events="all"/><path d="M 75 40 L 75 300" fill="none" stroke="#000000" stroke-miterlimit="10" stroke-dasharray="3 3" pointer-events="all"/><g fill="#000000" font-family="Helvetica" text-anchor="middle" font-size="12px"><text x="74.5" y="24.5">:Object</text></g><rect x="70" y="70" width="10" height="190" fill="#ffffff" stroke="#000000" pointer-events="all"/><path d="M 14 70 L 61.88 70" fill="none" stroke="#000000" stroke-miterlimit="10" pointer-events="stroke"/><ellipse cx="10" cy="70" rx="4" ry="4" fill="#000000" stroke="#000000" pointer-events="all"/><path d="M 68.88 70 L 61.88 73.5 L 61.88 66.5 Z" fill="#000000" stroke="#000000" stroke-miterlimit="10" pointer-events="all"/><g fill="#000000" font-family="Helvetica" text-anchor="middle" font-size="11px"><rect fill="#ffffff" stroke="none" x="16" y="55" width="49" height="14" stroke-width="0"/><text x="39.5" y="64.5">dispatch</text></g><rect x="75" y="120" width="10" height="80" fill="#ffffff" stroke="#000000" pointer-events="all"/><rect x="205" y="0" width="100" height="40" fill="#ffffff" stroke="#000000" pointer-events="all"/><path d="M 255 40 L 255 300" fill="none" stroke="#000000" stroke-miterlimit="10" stroke-dasharray="3 3" pointer-events="all"/><g fill="#000000" font-family="Helvetica" text-anchor="middle" font-size="12px"><text x="254.5" y="24.5">:Object</text></g><rect x="250" y="80" width="10" height="160" fill="#ffffff" stroke="#000000" pointer-events="all"/><path d="M 250 232 L 82.24 232" fill="none" stroke="#000000" stroke-miterlimit="10" stroke-dasharray="3 3" pointer-events="stroke"/><path d="M 90.12 227.5 L 81.12 232 L 90.12 236.5" fill="none" stroke="#000000" stroke-miterlimit="10" pointer-events="all"/><g fill="#000000" font-family="Helvetica" text-anchor="middle" font-size="11px"><rect fill="#ffffff" stroke="none" x="148" y="216" width="36" height="14" stroke-width="0"/><text x="164.5" y="226.5">return</text></g><path d="M 80 80 L 241.88 80" fill="none" stroke="#000000" stroke-miterlimit="10" pointer-events="stroke"/><path d="M 248.88 80 L 241.88 83.5 L 241.88 76.5 Z" fill="#000000" stroke="#000000" stroke-miterlimit="10" pointer-events="all"/><g fill="#000000" font-family="Helvetica" text-anchor="middle" font-size="11px"><rect fill="#ffffff" stroke="none" x="141" y="65" width="49" height="14" stroke-width="0"/><text x="164.5" y="74.5">dispatch</text></g><path d="M 250 120 L 93.12 120" fill="none" stroke="#000000" stroke-miterlimit="10" pointer-events="stroke"/><path d="M 86.12 120 L 93.12 116.5 L 93.12 123.5 Z" fill="#000000" stroke="#000000" stroke-miterlimit="10" pointer-events="all"/><g fill="#000000" font-family="Helvetica" text-anchor="middle" font-size="11px"><rect fill="#ffffff" stroke="none" x="144" y="105" width="47" height="14" stroke-width="0"/><text x="166.5" y="114.5">callback</text></g><path d="M 85 196 L 247.76 196" fill="none" stroke="#000000" stroke-miterlimit="10" stroke-dasharray="3 3" pointer-events="stroke"/><path d="M 239.88 200.5 L 248.88 196 L 239.88 191.5" fill="none" stroke="#000000" stroke-miterlimit="10" pointer-events="all"/><g fill="#000000" font-family="Helvetica" text-anchor="middle" font-size="11px"><rect fill="#ffffff" stroke="none" x="151" y="181" width="36" height="14" stroke-width="0"/><text x="167.5" y="190.5">return</text></g></g></svg>